<?xml version="1.0" encoding="UTF-8" standalone="no"?>
<!-- Created using Karbon, part of Calligra: http://www.calligra.org/karbon -->

<svg
   xmlns:dc="http://purl.org/dc/elements/1.1/"
   xmlns:cc="http://creativecommons.org/ns#"
   xmlns:rdf="http://www.w3.org/1999/02/22-rdf-syntax-ns#"
   xmlns:svg="http://www.w3.org/2000/svg"
   xmlns="http://www.w3.org/2000/svg"
   xmlns:sodipodi="http://sodipodi.sourceforge.net/DTD/sodipodi-0.dtd"
   xmlns:inkscape="http://www.inkscape.org/namespaces/inkscape"
   width="248.40083"
   height="248.43446"
   id="svg2"
   version="1.1"
   inkscape:version="0.48.3.1 r9886"
   sodipodi:docname="icon.svg">
  <title
     id="title3017">Icon for card games</title>
  <metadata
     id="metadata40">
    <rdf:RDF>
      <cc:Work
         rdf:about="">
        <dc:format>image/svg+xml</dc:format>
        <dc:type
           rdf:resource="http://purl.org/dc/dcmitype/StillImage" />
        <dc:title>Icon for card games</dc:title>
        <dc:date>21.10.2012</dc:date>
        <dc:creator>
          <cc:Agent>
            <dc:title>Roman Brown</dc:title>
          </cc:Agent>
        </dc:creator>
        <cc:license
           rdf:resource="http://creativecommons.org/licenses/by-sa/3.0/" />
      </cc:Work>
      <cc:License
         rdf:about="http://creativecommons.org/licenses/by-sa/3.0/">
        <cc:permits
           rdf:resource="http://creativecommons.org/ns#Reproduction" />
        <cc:permits
           rdf:resource="http://creativecommons.org/ns#Distribution" />
        <cc:requires
           rdf:resource="http://creativecommons.org/ns#Notice" />
        <cc:requires
           rdf:resource="http://creativecommons.org/ns#Attribution" />
        <cc:permits
           rdf:resource="http://creativecommons.org/ns#DerivativeWorks" />
        <cc:requires
           rdf:resource="http://creativecommons.org/ns#ShareAlike" />
      </cc:License>
    </rdf:RDF>
  </metadata>
  <sodipodi:namedview
     pagecolor="#ffffff"
     bordercolor="#666666"
     borderopacity="1"
     objecttolerance="10"
     gridtolerance="10"
     guidetolerance="10"
     inkscape:pageopacity="0"
     inkscape:pageshadow="2"
     inkscape:window-width="1920"
     inkscape:window-height="1033"
     id="namedview38"
     showgrid="false"
     fit-margin-top="0"
     fit-margin-left="0"
     fit-margin-right="0"
     fit-margin-bottom="0"
     inkscape:zoom="0.3171633"
     inkscape:cx="12.476127"
     inkscape:cy="-123.85743"
     inkscape:window-x="-2"
     inkscape:window-y="24"
     inkscape:window-maximized="1"
     inkscape:current-layer="svg2" />
  <defs
     id="defs4">
    <linearGradient
       id="gradient0"
       gradientUnits="userSpaceOnUse"
       x1="-0.060347818"
       y1="-0.064728935"
       x2="67.732426"
       y2="-0.064728935"
       spreadMethod="pad"
       gradientTransform="scale(1.035663,0.96556509)">
      <stop
         stop-color="#000000"
         offset="0.00000000000"
         stop-opacity="0.14999618524"
         id="stop7" />
      <stop
         stop-color="#ffffff"
         offset="0.70000000000"
         stop-opacity="0.00000000000"
         id="stop9" />
      <stop
         stop-color="#000000"
         offset="1.00000000000"
         stop-opacity="0.10000762951"
         id="stop11" />
    </linearGradient>
  </defs>
  <g
     id="layer0"
     transform="translate(0.22508587,0.24380663)">
    <g
       id="group0"
       transform="translate(-0.353899,-0.379641)"
       style="fill:none">
      <g
         id="red_joker"
         transform="translate(1064.18,1302.3)"
         style="fill:none">
        <g
           id="card-outline"
           transform="translate(1.85797,1.99311)"
           style="fill:none">
          <rect
             id="shape0"
             transform="matrix(3.53899,0,0,3.79641,-1065.68,-1303.92)"
             stroke-miterlimit="2.00000000000"
             width="70.085464"
             height="65.333336"
             rx="3.348032"
             ry="2.2323463"
             x="0"
             y="0"
             style="fill:#ffffff;stroke:#000000;stroke-width:0.1;stroke-linecap:butt;stroke-linejoin:miter;stroke-miterlimit:2" />
        </g>
        <g
           id="card-shadow"
           style="fill:none">
          <rect
             id="shape1"
             transform="matrix(3.53899,0,0,3.79641,-1063.83,-1301.92)"
             stroke-miterlimit="2.00000000000"
             width="70.085464"
             height="65.333336"
             rx="3.348032"
             ry="2.2323463"
             x="0"
             y="0"
             style="fill:url(#gradient0);stroke:#000000;stroke-width:0.1;stroke-linecap:butt;stroke-linejoin:miter;stroke-miterlimit:2" />
        </g>
      </g>
      <g
         id="court-frame"
         transform="translate(2259.15,42.1551)"
         style="fill:none">
        <rect
           id="shape2"
           transform="matrix(3.53899,0,0,3.79641,-2241.08,-24.0589)"
           stroke-miterlimit="2.00000000000"
           width="60.073261"
           height="56"
           x="0"
           y="0"
           style="fill:none;stroke:#0044bb;stroke-width:0.30000001;stroke-linecap:butt;stroke-linejoin:miter;stroke-miterlimit:2" />
      </g>
      <g
         id="diamond"
         transform="translate(2246.42,28.1792)"
         style="fill:none">
        <path
           id="shape3"
           transform="translate(-2229.02,-10.9746)"
           d="m 64.8426,41.109 c -0.1752,50.6275 -0.0184,56.7752 0,0 z M 64.6742,40.9221 C 51.3446,30.2173 39.4885,16.6023 32.3371,0 25.1856,16.6022 13.3301,30.2178 0,40.9221 13.3301,51.6264 25.1856,65.242 32.3371,81.8442 39.4806,65.246 51.3528,51.6224 64.6742,40.9221 z"
           inkscape:connector-curvature="0"
           style="fill:#ff0000" />
      </g>
      <g
         id="heart-g1"
         transform="translate(102.545,497.772)"
         style="fill:none">
        <g
           id="heart"
           style="fill:none">
          <path
             id="shape4"
             transform="translate(63.684,-352.493)"
             d="M 32.4382,86.1025 C 11.4133,65.9954 0.00244306,40.3827 0.00244306,19.4115 c 0,-0.1521 -0.003388563,-0.2378 0,-0.3844 -0.00549689,-0.1972 0,-0.3778 0,-0.5766 C 0.00244306,8.26584 7.26805,0 16.2203,0 c 7.0313,0 12.957,5.17747 15.2043,12.3004 0.3342,-0.0355 0.6714,0 1.0136,0 0.3424,0 0.6795,-0.0355 1.0136,0 C 35.6992,5.17747 41.6249,0 48.6561,0 57.6084,0 64.874,8.26584 64.874,18.4505 c 0,0.1988 0.0056,0.3794 0,0.5766 0,0.1316 0,0.2536 0,0.3844 0,20.9712 -11.4109,46.5839 -32.4358,66.691 z"
             inkscape:connector-curvature="0"
             style="fill:#ff0000" />
        </g>
      </g>
      <g
         id="club-g1"
         transform="translate(61.8963,834.577)"
         style="fill:none">
        <g
           id="club"
           style="fill:none">
          <path
             id="shape5"
             transform="translate(-44.2626,-673.238)"
             d="m 32.4213,0 c -7.6699,0 -13.8948,6.64191 -13.8948,14.9388 0,5.7405 3.0049,10.6957 7.3816,13.227 -0.581,0.6397 -1.187,1.2344 -1.5921,2.023 C 21.7691,27.0594 18.0492,25.0536 13.8948,25.0536 6.22489,25.0536 0,31.8511 0,40.148 c 0,8.2969 6.22489,14.9388 13.8948,14.9388 6.5994,0 12.0456,-4.9944 13.4607,-11.6709 0.6959,0.4832 1.5086,0.8191 2.3158,1.0892 -0.8892,15.0686 -5.9233,24.664 -6.2237,25.2092 l 8.9737,0.1557 9.1185,-0.1557 c -0.3004,-0.5452 -5.3345,-10.1406 -6.2237,-25.2092 0.7588,-0.2672 1.5126,-0.6321 2.171,-1.0892 1.4151,6.6765 6.8613,11.6709 13.4607,11.6709 7.6699,0 13.8948,-6.6419 13.8948,-14.9388 -5e-4,-8.2965 -6.2254,-15.0944 -13.8948,-15.0944 -4.1546,0 -7.8742,2.0056 -10.4212,5.1352 -0.423,-0.8234 -0.978,-1.5185 -1.5921,-2.1786 4.3452,-2.5417 7.3817,-7.3561 7.3817,-13.0714 C 46.3155,6.64235 40.0909,0 32.4213,0 z"
             inkscape:connector-curvature="0"
             style="fill:#000000" />
        </g>
      </g>
      <g
         id="spade"
         transform="translate(326.865,1015.71)"
         style="fill:none">
        <path
           id="shape6"
           transform="translate(-160.602,-998.27)"
           d="M 32.4213,0 C 11.6183,17.5043 0.228453,39.6803 0.0012657,58.0162 c -0.00284783,0.1298 0,0.2538 0,0.3843 -2.5687e-4,0.062 0,0.1301 0,0.1921 0,1.1526 0.1002573,2.0725 0.3377093,2.8816 C 1.59926,68.4752 6.9851,73.769 13.5096,73.769 c 7.0479,0 12.7257,-6.1859 13.3395,-14.0238 0.4258,0.2898 0.8898,0.5464 1.3509,0.7684 -1.7563,15.2038 -6.2731,24.7588 -6.5854,25.3581 l 10.469,0.1921 10.6378,-0.1921 c -0.3109,-0.597 -4.8118,-10.0744 -6.5853,-25.166 0.6378,-0.2658 1.2824,-0.5691 1.8574,-0.9605 0.6138,7.8379 6.2915,14.0238 13.3395,14.0238 6.5246,0 11.9103,-5.2938 13.1707,-12.2948 0.2374,-0.8091 0.3377,-1.729 0.3377,-2.8816 0,-0.062 2e-4,-0.1301 0,-0.1921 0,-0.1305 0.0028,-0.2545 0,-0.3843 C 64.6142,39.6803 53.2244,17.5043 32.4213,0 z"
           inkscape:connector-curvature="0"
           style="fill:#000000" />
      </g>
      <g
         id="group1"
         transform="translate(113.792,94.2934)"
         style="fill:none">
        <g
           id="i-1"
           transform="translate(75.0251,-89.0446)"
           style="fill:none">
          <path
             id="shape7"
             transform="translate(-79.2002,75.0695)"
             d="m 12.7799,0 -8.51994,40.5715 -2.12998,0 -2.12998,0 0,4.5416 2.12998,0 8.33472,0 2.0373,0 0,-4.5416 -2.0373,0 -1.94479,0 1.38912,-6.56 9.81637,0 1.3892,6.56 -1.9448,0 -2.0374,0 0,4.5416 2.0374,0 8.3347,0 2.13,0 0,-4.5416 -2.13,0 -2.13,0 L 16.8546,0 z m 2.0373,10.698 3.9822,18.7719 -7.9643,0 z"
             inkscape:connector-curvature="0"
             style="fill:#ff0000" />
        </g>
        <g
           id="i-1-r"
           transform="translate(-99.6242,203.347)"
           style="fill:none">
          <g
             id="i-11"
             style="fill:none">
            <path
               id="shape8"
               transform="translate(95.3197,-174.281)"
               d="m 16.8546,45.1131 8.5199,-40.57151 2.13,0 2.13,0 0,-4.54159 -2.13,0 -8.3347,0 -2.0374,0 0,4.54159 2.0374,0 1.9448,0 -1.3892,6.56011 -9.81637,0 -1.38912,-6.56011 1.94479,0 2.0373,0 L 12.502,0 10.4647,0 2.12998,0 0,0 l 0,4.54159 2.12998,0 2.12998,0 8.51994,40.57151 z m -2.0374,-10.6979 -3.9821,-18.7719 7.9643,0 z"
               inkscape:connector-curvature="0"
               style="fill:#ff0000" />
          </g>
        </g>
      </g>
    </g>
  </g>
</svg>
